<?xml version="1.0" encoding="utf-8"?>
<!-- Generator: Adobe Illustrator 21.1.0, SVG Export Plug-In . SVG Version: 6.00 Build 0)  -->
<svg version="1.1"
	 id="svg8030" inkscape:version="0.48.4 r9939" sodipodi:docname="New document 3" xmlns:cc="http://creativecommons.org/ns#" xmlns:dc="http://purl.org/dc/elements/1.1/" xmlns:inkscape="http://www.inkscape.org/namespaces/inkscape" xmlns:rdf="http://www.w3.org/1999/02/22-rdf-syntax-ns#" xmlns:sodipodi="http://sodipodi.sourceforge.net/DTD/sodipodi-0.dtd" xmlns:svg="http://www.w3.org/2000/svg"
	 xmlns="http://www.w3.org/2000/svg" xmlns:xlink="http://www.w3.org/1999/xlink" x="0px" y="0px" viewBox="0 0 200 200"
	 style="enable-background:new 0 0 200 200;" xml:space="preserve">
<style type="text/css">
	.st0{fill:#000333;}
	.st1{fill:#007BC1;}
</style>
<path id="rect6781-1" inkscape:connector-curvature="0" class="st0" d="M90.5,4l-1.1,0.1l0.3,2.4c0.4,0,0.7-0.1,1.1-0.1
	C90.7,6.4,90.5,4,90.5,4z M109.5,4l-0.3,2.4c0.4,0,0.7,0.1,1.1,0.1l0.3-2.4L109.5,4L109.5,4z M80.5,5.6l-1.1,0.2l0.5,2.4
	C80.3,8.1,80.6,8,81,7.9L80.5,5.6z M119.5,5.6L119,7.9c0.4,0.1,0.7,0.2,1.1,0.2l0.5-2.4L119.5,5.6z M70.7,8.1l-1.1,0.3l0.7,2.3
	c0.4-0.1,0.7-0.2,1.1-0.3L70.7,8.1z M129.3,8.1l-0.7,2.3c0.4,0.1,0.7,0.2,1.1,0.3l0.7-2.3L129.3,8.1z M61.3,11.7l-1,0.5l1,2.2
	c0.3-0.2,0.7-0.3,1-0.5L61.3,11.7z M138.7,11.7l-1,2.2c0.3,0.2,0.7,0.3,1,0.5l1-2.2L138.7,11.7z M43.8,21.7l-0.9,0.7l1.4,2
	c0.3-0.2,0.6-0.4,0.9-0.7C45.2,23.6,43.8,21.7,43.8,21.7z M156.2,21.7l-1.4,2c0.3,0.2,0.6,0.4,0.9,0.7l1.4-2
	C157.1,22.3,156.2,21.7,156.2,21.7z M35.9,28l-0.8,0.8l1.6,1.8c0.3-0.3,0.6-0.5,0.8-0.8L35.9,28z M164.1,28l-1.6,1.8
	c0.3,0.2,0.6,0.5,0.8,0.8l1.6-1.8L164.1,28L164.1,28z M28.7,35.1L28,35.9l1.8,1.6c0.2-0.3,0.5-0.6,0.8-0.8L28.7,35.1L28.7,35.1z
	 M171.3,35.1l-1.8,1.6c0.3,0.3,0.5,0.6,0.8,0.8l1.8-1.6L171.3,35.1z M22.3,42.9l-0.7,0.9l2,1.4c0.2-0.3,0.4-0.6,0.7-0.9L22.3,42.9z
	 M177.7,42.9l-2,1.4c0.2,0.3,0.4,0.6,0.7,0.9l2-1.4L177.7,42.9z M16.8,51.3l-0.6,1l2.1,1.2c0.2-0.3,0.4-0.7,0.6-1L16.8,51.3
	L16.8,51.3z M183.2,51.3l-2.1,1.2c0.2,0.3,0.4,0.7,0.6,1l2.1-1.2L183.2,51.3z M12.1,60.3l-0.5,1l2.2,1c0.2-0.3,0.3-0.7,0.5-1
	L12.1,60.3L12.1,60.3z M187.9,60.3l-2.2,1c0.2,0.3,0.3,0.7,0.5,1l2.2-1L187.9,60.3L187.9,60.3z M8.5,69.7l-0.3,1.1l2.3,0.7
	c0.1-0.4,0.2-0.7,0.3-1.1L8.5,69.7L8.5,69.7z M191.5,69.7l-2.3,0.7c0.1,0.4,0.2,0.7,0.3,1.1l2.3-0.7
	C191.9,70.7,191.5,69.7,191.5,69.7z M5.8,79.4l-0.2,1.1L7.9,81c0.1-0.4,0.2-0.7,0.2-1.1L5.8,79.4z M194.2,79.4l-2.4,0.5
	c0.1,0.4,0.2,0.7,0.2,1.1l2.4-0.5L194.2,79.4z M4.2,89.4L4,90.5l2.4,0.3c0-0.4,0.1-0.7,0.1-1.1L4.2,89.4z M195.8,89.4l-2.4,0.3
	c0,0.4,0.1,0.7,0.1,1.1l2.4-0.3C196,90.5,195.8,89.4,195.8,89.4z M6.4,109.3L4,109.5l0.1,1.1l2.4-0.3C6.5,110,6.5,109.6,6.4,109.3z
	 M193.6,109.3c0,0.4-0.1,0.7-0.1,1.1l2.4,0.3l0.1-1.1L193.6,109.3z M7.9,119l-2.4,0.5l0.2,1.1l2.4-0.5C8.1,119.7,8,119.4,7.9,119z
	 M192.1,119c-0.1,0.4-0.2,0.7-0.2,1.1l2.4,0.5l0.2-1.1L192.1,119z M10.4,128.5l-2.3,0.7l0.3,1.1l2.3-0.7
	C10.6,129.2,10.5,128.9,10.4,128.5L10.4,128.5z M189.6,128.5c-0.1,0.4-0.2,0.7-0.3,1.1l2.3,0.7l0.3-1.1
	C191.9,129.3,189.6,128.5,189.6,128.5z M13.9,137.7l-2.2,1l0.5,1l2.2-1C14.2,138.4,14,138.1,13.9,137.7L13.9,137.7z M186.1,137.7
	c-0.2,0.3-0.3,0.7-0.5,1l2.2,1l0.5-1L186.1,137.7L186.1,137.7z M18.3,146.5l-2.1,1.2l0.6,1l2.1-1.2
	C18.7,147.2,18.5,146.8,18.3,146.5L18.3,146.5z M181.7,146.5c-0.2,0.3-0.4,0.7-0.6,1l2.1,1.2l0.6-1L181.7,146.5z M23.6,154.8l-2,1.4
	l0.7,0.9l2-1.4C24.1,155.4,23.8,155.1,23.6,154.8z M176.4,154.8c-0.2,0.3-0.4,0.6-0.7,0.9l2,1.4l0.7-0.9
	C178.3,156.2,176.4,154.8,176.4,154.8z M29.8,162.5l-1.8,1.6l0.8,0.8l1.8-1.6C30.3,163,30,162.8,29.8,162.5L29.8,162.5z
	 M170.2,162.5c-0.2,0.3-0.5,0.6-0.8,0.8l1.8,1.6l0.8-0.8L170.2,162.5z M36.7,169.5l-1.6,1.8l0.8,0.8l1.6-1.8
	C37.2,170,37,169.7,36.7,169.5z M163.3,169.5c-0.3,0.3-0.6,0.5-0.8,0.8l1.6,1.8l0.8-0.8L163.3,169.5L163.3,169.5z M44.3,175.7
	l-1.4,2l0.9,0.7l1.4-2C44.9,176.2,44.6,175.9,44.3,175.7z M155.7,175.7c-0.3,0.2-0.6,0.4-0.9,0.7l1.4,2l0.9-0.7L155.7,175.7z
	 M52.5,181.1l-1.2,2.1l1,0.6l1.2-2.1C53.2,181.5,52.8,181.3,52.5,181.1z M147.5,181.1c-0.3,0.2-0.7,0.4-1,0.6l1.2,2.1l1-0.6
	C148.7,183.2,147.5,181.1,147.5,181.1z M61.2,185.7l-1,2.2l1,0.5l1-2.2C61.9,186,61.6,185.8,61.2,185.7z M138.8,185.7
	c-0.3,0.2-0.7,0.3-1,0.5l1,2.2l1-0.5L138.8,185.7z M70.4,189.3l-0.7,2.3l1.1,0.3l0.7-2.3C71.1,189.5,70.8,189.4,70.4,189.3z
	 M129.6,189.3c-0.4,0.1-0.7,0.2-1.1,0.3l0.7,2.3l1.1-0.3L129.6,189.3z M79.9,191.9l-0.5,2.4l1.1,0.2l0.5-2.4
	C80.6,192,80.3,191.9,79.9,191.9z M120.1,191.9c-0.4,0.1-0.7,0.2-1.1,0.2l0.5,2.4l1.1-0.2L120.1,191.9z M89.6,193.4l-0.3,2.4
	l1.1,0.1l0.3-2.4C90.4,193.5,90,193.5,89.6,193.4z M110.4,193.4c-0.4,0-0.7,0.1-1.1,0.1l0.3,2.4l1.1-0.1L110.4,193.4L110.4,193.4z"
	/>
<sodipodi:namedview  bordercolor="#666666" borderopacity="1.0" id="base" inkscape:current-layer="layer1" inkscape:cx="-65.219878" inkscape:cy="166.41905" inkscape:document-units="px" inkscape:pageopacity="0.0" inkscape:pageshadow="2" inkscape:showpageshadow="false" inkscape:window-height="705" inkscape:window-maximized="1" inkscape:window-width="1366" inkscape:window-x="-8" inkscape:window-y="-8" inkscape:zoom="1.4" pagecolor="#ffffff" showgrid="false">
	</sodipodi:namedview>
<rect id="rect3339" x="98.7" y="3.6" class="st1" width="2.9" height="4"/>
<rect id="rect3341" x="98.7" y="192.5" class="st1" width="2.9" height="4"/>
<rect id="rect3343" x="180.5" y="145.1" transform="matrix(0.5 -0.866 0.866 0.5 -36.3985 231.1197)" class="st1" width="2.9" height="4"/>
<rect id="rect3345" x="3.6" y="98.8" class="st1" width="4" height="2.9"/>
<rect id="rect3347" x="144.9" y="16.6" transform="matrix(0.5 -0.866 0.866 0.5 57.7653 136.2392)" class="st1" width="4" height="2.9"/>
<rect id="rect3349" x="179.8" y="51.2" transform="matrix(0.866 -0.5 0.5 0.866 -1.9542 97.9484)" class="st1" width="4" height="2.9"/>
<rect id="rect3351" x="145.5" y="180.1" transform="matrix(0.866 -0.5 0.5 0.866 -71.3547 97.8696)" class="st1" width="2.9" height="4"/>
<rect id="rect3355" x="192.5" y="98.8" class="st1" width="4" height="2.9"/>
<rect id="rect3357" x="16.2" y="145.8" transform="matrix(0.866 -0.5 0.5 0.866 -71.1862 28.8307)" class="st1" width="4" height="2.9"/>
<rect id="rect3359" x="50.7" y="180.3" transform="matrix(0.5 -0.866 0.866 0.5 -131.0198 136.5323)" class="st1" width="4" height="2.9"/>
<rect id="rect3361" x="51.6" y="16.2" transform="matrix(0.866 -0.5 0.5 0.866 -1.9801 28.9622)" class="st1" width="2.9" height="4"/>
<rect id="rect3363" x="16.7" y="50.8" transform="matrix(0.5 -0.866 0.866 0.5 -36.6611 42.1006)" class="st1" width="2.9" height="4"/>
</svg>
